<svg aria-hidden="true" style="position: absolute; width: 0; height: 0; overflow: hidden;" version="1.1" xmlns="http://www.w3.org/2000/svg" xmlns:xlink="http://www.w3.org/1999/xlink">
<defs>
<symbol id="icon-coin" viewBox="0 0 40 40">
<path d="M18.75 2.5c-10.355 0-18.75 8.395-18.75 18.75s8.395 18.75 18.75 18.75c10.355 0 18.75-8.395 18.75-18.75s-8.395-18.75-18.75-18.75zM18.75 36.25c-8.284 0-15-6.716-15-15s6.716-15 15-15c8.284 0 15 6.716 15 15s-6.716 15-15 15zM20 20v-5h5v-2.5h-5v-2.5h-2.5v2.5h-5v10h5v5h-5v2.5h5v2.5h2.5v-2.5h5l-0-10h-5zM17.5 20h-2.5v-5h2.5v5zM22.5 27.5h-2.5v-5h2.5v5z"></path>
</symbol>
<symbol id="icon-rev" viewBox="0 0 45 40">
<path d="M18.75 5c-1.979 0-3.89 0.311-5.679 0.923-1.677 0.574-3.169 1.384-4.434 2.408-2.345 1.898-3.637 4.328-3.637 6.843 0 1.406 0.393 2.771 1.169 4.059 0.808 1.341 2.027 2.57 3.526 3.553 1.189 0.78 1.99 2.029 2.202 3.436 0.035 0.234 0.064 0.469 0.085 0.704 0.106-0.098 0.212-0.2 0.317-0.304 0.943-0.939 2.214-1.457 3.528-1.457 0.209 0 0.419 0.013 0.629 0.040 0.756 0.096 1.528 0.144 2.295 0.144 1.979 0 3.89-0.31 5.679-0.923 1.677-0.574 3.169-1.384 4.434-2.408 2.346-1.898 3.637-4.328 3.637-6.843s-1.292-4.945-3.637-6.843c-1.265-1.024-2.757-1.834-4.434-2.408-1.789-0.612-3.7-0.923-5.679-0.923zM18.75 0v0c10.355 0 18.75 6.794 18.75 15.174s-8.395 15.174-18.75 15.174c-0.994 0-1.971-0.063-2.923-0.184-4.028 4.011-8.679 4.731-13.327 4.836v-0.982c2.51-1.225 4.531-3.456 4.531-6.005 0-0.356-0.028-0.705-0.079-1.047-4.241-2.782-6.952-7.031-6.952-11.793 0-8.38 8.395-15.174 18.75-15.174zM38.906 34.011c0 2.185 1.419 4.098 3.594 5.147v0.841c-4.028-0.091-7.726-0.707-11.216-4.146-0.826 0.104-1.672 0.158-2.534 0.158-3.729 0-7.164-1.006-9.907-2.697 5.651-0.020 10.987-1.83 15.033-5.104 2.039-1.65 3.648-3.587 4.782-5.756 1.202-2.299 1.811-4.749 1.811-7.281 0-0.408-0.018-0.814-0.049-1.218 2.835 2.341 4.58 5.532 4.58 9.050 0 4.082-2.35 7.724-6.025 10.108-0.045 0.293-0.069 0.592-0.069 0.897z"></path>
</symbol>
<symbol id="icon-info" viewBox="0 0 40 40">
<path d="M17.5 11.875c0-1.031 0.844-1.875 1.875-1.875h1.25c1.031 0 1.875 0.844 1.875 1.875v1.25c0 1.031-0.844 1.875-1.875 1.875h-1.25c-1.031 0-1.875-0.844-1.875-1.875v-1.25z"></path>
<path d="M25 30h-10v-2.5h2.5v-7.5h-2.5v-2.5h7.5v10h2.5z"></path>
<path d="M20 0c-11.046 0-20 8.954-20 20s8.954 20 20 20 20-8.954 20-20-8.954-20-20-20zM20 36.25c-8.975 0-16.25-7.275-16.25-16.25s7.275-16.25 16.25-16.25 16.25 7.275 16.25 16.25-7.275 16.25-16.25 16.25z"></path>
</symbol>
<symbol id="icon-pin" viewBox="0 0 40 40">
<path d="M20 0c-6.904 0-12.5 5.596-12.5 12.5 0 12.5 12.5 27.5 12.5 27.5s12.5-15 12.5-27.5c0-6.904-5.596-12.5-12.5-12.5zM20 20.156c-4.228 0-7.656-3.428-7.656-7.656s3.428-7.656 7.656-7.656 7.656 3.428 7.656 7.656-3.428 7.656-7.656 7.656zM15.156 12.5c0-2.675 2.169-4.844 4.844-4.844s4.844 2.169 4.844 4.844c0 2.675-2.169 4.844-4.844 4.844s-4.844-2.169-4.844-4.844z"></path>
</symbol>
<symbol id="icon-home" viewBox="0 0 40 40">
<path d="M40 23.064l-20-15.524-20 15.525v-6.33l20-15.524 20 15.525zM35 22.5v15h-10v-10h-10v10h-10v-15l15-11.25z"></path>
</symbol>
</defs>
</svg>
