<svg width="20" height="20" viewBox="0 0 20 20" fill="none" xmlns="http://www.w3.org/2000/svg">
<path d="M10 0.588135C4.83056 0.588135 0.588257 4.83044 0.588257 9.9999C0.588257 14.4112 3.68367 18.4184 7.79414 19.4117V16.2979C7.38685 16.387 7.01203 16.3896 6.59742 16.2674C6.04121 16.1033 5.58926 15.7328 5.25378 15.1678C5.03995 14.807 4.66095 14.4158 4.26559 14.4446L4.16865 13.3459C5.02357 13.2727 5.76318 13.8668 6.2022 14.6044C6.39722 14.9324 6.62169 15.1247 6.90978 15.2097C7.18824 15.2917 7.48724 15.2524 7.83564 15.1293C7.9231 14.4318 8.24264 14.1707 8.48405 13.803V13.8025C6.03259 13.4368 5.0556 12.1363 4.66785 11.1097C4.154 9.74671 4.42974 8.0439 5.33837 6.96782C5.35604 6.94685 5.38792 6.89199 5.37557 6.85364C4.95895 5.59517 5.46662 4.55413 5.48529 4.44369C5.9661 4.58587 6.04423 4.30065 7.57384 5.22997L7.83823 5.3888C7.94881 5.45472 7.91405 5.41709 8.02464 5.40876C8.66328 5.23528 9.33653 5.13949 9.99988 5.13087C10.6682 5.13949 11.3372 5.23528 12.0023 5.4158L12.0879 5.42442C12.0804 5.42327 12.1111 5.41896 12.1627 5.38823C14.0734 4.23086 14.0048 4.60913 14.5172 4.44254C14.5357 4.55312 15.0366 5.61111 14.6245 6.85364C14.5689 7.02483 16.281 8.59264 15.3321 11.1093C14.9443 12.1363 13.9674 13.4368 11.516 13.8025V13.803C11.8302 14.282 12.2078 14.5367 12.2058 15.5248V19.4117C16.3164 18.4184 19.4116 14.4112 19.4116 9.9999C19.4118 4.83044 15.1695 0.588135 10 0.588135V0.588135Z" fill="white"/>
</svg>
